<svg xmlns="http://www.w3.org/2000/svg" width="189" height="77" viewBox="0 0 189 77" fill="none">
  <path fill-rule="evenodd" clip-rule="evenodd" d="M9.7709e-07 31.1711C9.7709e-07 26.9185 3.4538 23.4711 7.71429 23.4711C15.4286 23.4711 30.8571 23.4711 46.2857 18.1182C61.7143 12.7653 77.1429 2.05954 92.5714 0.275248C108 -1.50905 123.429 5.62814 138.857 14.5496C154.286 23.4711 169.714 34.1769 177.429 39.5298C182.261 42.8831 185.143 48.3857 185.143 54.2605V69.3C185.143 73.5526 181.689 77 177.429 77C169.714 77 154.286 77 138.857 77C123.429 77 108 77 92.5714 77C77.1429 77 61.7143 77 46.2857 77C30.8571 77 15.4286 77 7.71429 77C3.4538 77 9.7709e-07 73.5526 9.7709e-07 69.3V31.1711Z" fill="#469280"/>
  <path fill-rule="evenodd" clip-rule="evenodd" d="M188.036 59.9309C188.036 58.3088 186.947 56.8878 185.379 56.4625L180.241 55.069C172.446 52.955 156.857 48.727 141.268 39.214C125.679 29.701 110.089 14.9029 94.5 12.7889C78.9107 10.6749 63.3214 21.245 47.7321 25.473C32.1429 29.701 16.5536 27.587 8.75894 26.53C4.63518 25.9708 0.964293 29.1707 0.964293 33.3246V55.7448C0.964293 60.0417 4.45407 63.525 8.75894 63.525C16.5536 63.525 32.1429 63.525 47.7321 63.525C63.3214 63.525 78.9107 63.525 94.5 63.525C110.089 63.525 125.679 63.525 141.268 63.525C156.857 63.525 172.446 63.525 180.241 63.525H184.435C186.424 63.525 188.036 61.9158 188.036 59.9309Z" fill="#2F7A78"/>
  <path fill-rule="evenodd" clip-rule="evenodd" d="M0.964287 28.4246L8.71875 32.1892C16.4732 35.9539 31.9821 43.4832 47.4911 44.2361C63 44.9891 78.5089 38.9656 94.0179 32.1892C109.527 25.4129 125.036 17.8836 140.545 20.8953C156.054 23.907 171.562 37.4598 179.317 44.2361L187.071 51.0125H179.317C171.562 51.0125 156.054 51.0125 140.545 51.0125C125.036 51.0125 109.527 51.0125 94.0179 51.0125C78.5089 51.0125 63 51.0125 47.4911 51.0125C31.9821 51.0125 16.4732 51.0125 8.71875 51.0125H0.964287V28.4246Z" fill="#1D5A67"/>
  <path fill-rule="evenodd" clip-rule="evenodd" d="M188.036 53.6829C188.036 51.7326 186.856 49.9752 185.05 49.2328L180.249 47.26C172.461 43.7937 156.658 37.3944 141.084 34.9947C125.281 32.8616 109.707 34.9947 93.9033 39.5275C78.3291 43.7938 62.7549 50.4597 46.9517 48.3266C31.3775 45.9269 15.5742 34.9947 7.78711 29.6619L7.63963 29.5559C4.45048 27.2627 4.45438e-07 29.5374 4.45438e-07 33.4606V58.7125C4.45438e-07 61.3704 2.15863 63.525 4.82143 63.525H7.78711C15.5742 63.525 31.3775 63.525 46.9517 63.525C62.7549 63.525 78.3291 63.525 93.9033 63.525C109.707 63.525 125.281 63.525 141.084 63.525C156.658 63.525 172.461 63.525 180.249 63.525H183.214C185.877 63.525 188.036 61.3704 188.036 58.7125V53.6829Z" fill="#13404D"/>
  <path fill-rule="evenodd" clip-rule="evenodd" d="M189 64.277C189 60.9728 187.454 57.858 184.821 55.8554L181.125 53.0444C173.25 47.0556 157.5 35.0778 141.75 35.0778C126 35.0778 110.25 47.0556 94.5 51.0481C78.75 55.0407 63 51.0481 47.25 45.0593C31.5 39.0704 15.75 31.0852 7.875 27.0926C4.26912 25.2644 0 27.8794 0 31.9163V69.1396C0 73.4808 3.52576 77 7.875 77C15.75 77 31.5 77 47.25 77C63 77 78.75 77 94.5 77C110.25 77 126 77 141.75 77C157.5 77 173.25 77 181.125 77C185.474 77 189 73.4808 189 69.1396V64.277Z" fill="#10313E"/>
  <path fill-rule="evenodd" clip-rule="evenodd" d="M9.7709e-07 31.1711C9.7709e-07 26.9185 3.4538 23.4711 7.71429 23.4711C15.4286 23.4711 30.8571 23.4711 46.2857 18.1182C61.7143 12.7653 77.1429 2.05954 92.5714 0.275248C108 -1.50905 123.429 5.62814 138.857 14.5496C154.286 23.4711 169.714 34.1769 177.429 39.5298C182.261 42.8831 185.143 48.3857 185.143 54.2605V69.3C185.143 73.5526 181.689 77 177.429 77C169.714 77 154.286 77 138.857 77C123.429 77 108 77 92.5714 77C77.1429 77 61.7143 77 46.2857 77C30.8571 77 15.4286 77 7.71429 77C3.4538 77 9.7709e-07 73.5526 9.7709e-07 69.3V31.1711Z"/>
  <path fill-rule="evenodd" clip-rule="evenodd" d="M188.036 59.9309C188.036 58.3088 186.947 56.8878 185.379 56.4625L180.241 55.069C172.446 52.955 156.857 48.727 141.268 39.214C125.679 29.701 110.089 14.9029 94.5 12.7889C78.9107 10.6749 63.3214 21.245 47.7321 25.473C32.1429 29.701 16.5536 27.587 8.75894 26.53C4.63518 25.9708 0.964293 29.1707 0.964293 33.3246V55.7448C0.964293 60.0417 4.45407 63.525 8.75894 63.525C16.5536 63.525 32.1429 63.525 47.7321 63.525C63.3214 63.525 78.9107 63.525 94.5 63.525C110.089 63.525 125.679 63.525 141.268 63.525C156.857 63.525 172.446 63.525 180.241 63.525H184.435C186.424 63.525 188.036 61.9158 188.036 59.9309Z"/>
  <path fill-rule="evenodd" clip-rule="evenodd" d="M0.964287 28.4246L8.71875 32.1892C16.4732 35.9539 31.9821 43.4832 47.4911 44.2361C63 44.9891 78.5089 38.9656 94.0179 32.1892C109.527 25.4129 125.036 17.8836 140.545 20.8953C156.054 23.907 171.562 37.4598 179.317 44.2361L187.071 51.0125H179.317C171.562 51.0125 156.054 51.0125 140.545 51.0125C125.036 51.0125 109.527 51.0125 94.0179 51.0125C78.5089 51.0125 63 51.0125 47.4911 51.0125C31.9821 51.0125 16.4732 51.0125 8.71875 51.0125H0.964287V28.4246Z"/>
  <path fill-rule="evenodd" clip-rule="evenodd" d="M188.036 53.6829C188.036 51.7326 186.856 49.9752 185.05 49.2328L180.249 47.26C172.461 43.7937 156.658 37.3944 141.084 34.9947C125.281 32.8616 109.707 34.9947 93.9033 39.5275C78.3291 43.7938 62.7549 50.4597 46.9517 48.3266C31.3775 45.9269 15.5742 34.9947 7.78711 29.6619L7.63963 29.5559C4.45048 27.2627 4.45438e-07 29.5374 4.45438e-07 33.4606V58.7125C4.45438e-07 61.3704 2.15863 63.525 4.82143 63.525H7.78711C15.5742 63.525 31.3775 63.525 46.9517 63.525C62.7549 63.525 78.3291 63.525 93.9033 63.525C109.707 63.525 125.281 63.525 141.084 63.525C156.658 63.525 172.461 63.525 180.249 63.525H183.214C185.877 63.525 188.036 61.3704 188.036 58.7125V53.6829Z"/>
  <path fill-rule="evenodd" clip-rule="evenodd" d="M189 64.277C189 60.9728 187.454 57.858 184.821 55.8554L181.125 53.0444C173.25 47.0556 157.5 35.0778 141.75 35.0778C126 35.0778 110.25 47.0556 94.5 51.0481C78.75 55.0407 63 51.0481 47.25 45.0593C31.5 39.0704 15.75 31.0852 7.875 27.0926C4.26912 25.2644 0 27.8794 0 31.9163V69.1396C0 73.4808 3.52576 77 7.875 77C15.75 77 31.5 77 47.25 77C63 77 78.75 77 94.5 77C110.25 77 126 77 141.75 77C157.5 77 173.25 77 181.125 77C185.474 77 189 73.4808 189 69.1396V64.277Z"/>
</svg>